<?xml version="1.0" encoding="UTF-8" standalone="no"?><svg xmlns="http://www.w3.org/2000/svg" xmlns:xlink="http://www.w3.org/1999/xlink" contentStyleType="text/css" height="1592px" preserveAspectRatio="none" style="width:813px;height:1592px;background:#FFFFFF;" version="1.1" viewBox="0 0 813 1592" width="813px" zoomAndPan="magnify"><defs/><g><!--MD5=[b4a08eb12ad55599932438be35c8a040]
cluster Species Classifier System--><g id="cluster_Species Classifier System"><rect fill="none" height="1457.5" rx="2.5" ry="2.5" style="stroke:#181818;stroke-width:1.0;" width="566" x="7" y="128.5"/><text fill="#000000" font-family="sans-serif" font-size="14" font-weight="bold" lengthAdjust="spacing" textLength="203" x="188.5" y="143.4951">Species Classifier System</text></g><g id="elem_Login to App"><ellipse cx="483.0233" cy="180.9047" fill="#F1F1F1" rx="67.5233" ry="15.9047" style="stroke:#181818;stroke-width:0.5;"/><text fill="#000000" font-family="sans-serif" font-size="14" lengthAdjust="spacing" textLength="86" x="437.0233" y="184.6522">Login to App</text></g><g id="elem_Authenticate User"><ellipse cx="473.788" cy="317.3576" fill="#F1F1F1" rx="82.288" ry="18.8576" style="stroke:#181818;stroke-width:0.5;"/><text fill="#000000" font-family="sans-serif" font-size="14" lengthAdjust="spacing" textLength="124" x="410.9505" y="320.4838">Authenticate User</text></g><g id="elem_Deny User"><ellipse cx="325.2349" cy="438.947" fill="#F1F1F1" rx="62.7349" ry="14.947" style="stroke:#181818;stroke-width:0.5;"/><text fill="#000000" font-family="sans-serif" font-size="14" lengthAdjust="spacing" textLength="72" x="286.2349" y="442.6945">Deny User</text></g><g id="elem_Accept User"><ellipse cx="489.8142" cy="438.7628" fill="#F1F1F1" rx="66.8142" ry="15.7628" style="stroke:#181818;stroke-width:0.5;"/><text fill="#000000" font-family="sans-serif" font-size="14" lengthAdjust="spacing" textLength="84" x="444.8142" y="442.5104">Accept User</text></g><g id="elem_Create Account"><ellipse cx="281.8844" cy="180.9769" fill="#F1F1F1" rx="75.3844" ry="17.4769" style="stroke:#181818;stroke-width:0.5;"/><text fill="#000000" font-family="sans-serif" font-size="14" lengthAdjust="spacing" textLength="107" x="225.3844" y="184.7244">Create Account</text></g><g id="elem_Enter User Information"><ellipse cx="192.9604" cy="317.4921" fill="#F1F1F1" rx="95.4604" ry="21.4921" style="stroke:#181818;stroke-width:0.5;"/><text fill="#000000" font-family="sans-serif" font-size="14" lengthAdjust="spacing" textLength="154" x="115.9604" y="320.3388">Enter User Information</text></g><g id="elem_Display Account Created"><ellipse cx="125.2481" cy="438.8496" fill="#F1F1F1" rx="102.2481" ry="22.8496" style="stroke:#181818;stroke-width:0.5;"/><text fill="#000000" font-family="sans-serif" font-size="14" lengthAdjust="spacing" textLength="169" x="40.7481" y="441.6963">Display Account Created</text></g><g id="elem_Login to Account"><ellipse cx="124.9652" cy="557.193" fill="#F1F1F1" rx="78.9652" ry="18.193" style="stroke:#181818;stroke-width:0.5;"/><text fill="#000000" font-family="sans-serif" font-size="14" lengthAdjust="spacing" textLength="116" x="64.9" y="560.6886">Login to Account</text></g><g id="elem_View Home Page"><ellipse cx="391.9652" cy="557.193" fill="#F1F1F1" rx="78.9652" ry="18.193" style="stroke:#181818;stroke-width:0.5;"/><text fill="#000000" font-family="sans-serif" font-size="14" lengthAdjust="spacing" textLength="116" x="331.9" y="560.6886">View Home Page</text></g><g id="elem_Select Classification Request"><ellipse cx="392.0937" cy="677.6187" fill="#F1F1F1" rx="116.0937" ry="25.6187" style="stroke:#181818;stroke-width:0.5;"/><text fill="#000000" font-family="sans-serif" font-size="14" lengthAdjust="spacing" textLength="199" x="292.5937" y="680.4654">Select Classification Request</text></g><g id="elem_Start Image Search"><ellipse cx="467.8592" cy="817.8718" fill="#F1F1F1" rx="84.8592" ry="19.3718" style="stroke:#181818;stroke-width:0.5;"/><text fill="#000000" font-family="sans-serif" font-size="14" lengthAdjust="spacing" textLength="130" x="402.8592" y="820.7185">Start Image Search</text></g><g id="elem_Start Freeform Search"><ellipse cx="343.1693" cy="907.1339" fill="#F1F1F1" rx="93.6693" ry="21.1339" style="stroke:#181818;stroke-width:0.5;"/><text fill="#000000" font-family="sans-serif" font-size="14" lengthAdjust="spacing" textLength="150" x="268.1693" y="909.9805">Start Freeform Search</text></g><g id="elem_Start Survey Search"><ellipse cx="158.0998" cy="907.22" fill="#F1F1F1" rx="86.5998" ry="19.72" style="stroke:#181818;stroke-width:0.5;"/><text fill="#000000" font-family="sans-serif" font-size="14" lengthAdjust="spacing" textLength="134" x="91.0998" y="910.0666">Start Survey Search</text></g><g id="elem_View Saved Results"><ellipse cx="288.0998" cy="1550.72" fill="#F1F1F1" rx="86.5998" ry="19.72" style="stroke:#181818;stroke-width:0.5;"/><text fill="#000000" font-family="sans-serif" font-size="14" lengthAdjust="spacing" textLength="134" x="221.0998" y="1553.5666">View Saved Results</text></g><g id="elem_Image Processing"><ellipse cx="474.8658" cy="976.7732" fill="#F1F1F1" rx="81.8658" ry="18.7732" style="stroke:#181818;stroke-width:0.5;"/><text fill="#000000" font-family="sans-serif" font-size="14" lengthAdjust="spacing" textLength="123" x="412.3805" y="979.9463">Image Processing</text></g><g id="elem_Decision Forum Processing"><ellipse cx="287.9443" cy="1081.6889" fill="#F1F1F1" rx="111.4443" ry="24.6889" style="stroke:#181818;stroke-width:0.5;"/><text fill="#000000" font-family="sans-serif" font-size="14" lengthAdjust="spacing" textLength="189" x="193.4443" y="1084.5355">Decision Forum Processing</text></g><g id="elem_Display Results"><ellipse cx="288.1066" cy="1200.3213" fill="#F1F1F1" rx="74.6066" ry="17.3213" style="stroke:#181818;stroke-width:0.5;"/><text fill="#000000" font-family="sans-serif" font-size="14" lengthAdjust="spacing" textLength="105" x="232.6066" y="1204.0689">Display Results</text></g><g id="elem_Generate Report"><ellipse cx="287.9652" cy="1313.193" fill="#F1F1F1" rx="78.9652" ry="18.193" style="stroke:#181818;stroke-width:0.5;"/><text fill="#000000" font-family="sans-serif" font-size="14" lengthAdjust="spacing" textLength="116" x="227.9" y="1316.6886">Generate Report</text></g><g id="elem_Save Results to Account"><ellipse cx="287.7923" cy="1430.7585" fill="#F1F1F1" rx="101.7923" ry="22.7585" style="stroke:#181818;stroke-width:0.5;"/><text fill="#000000" font-family="sans-serif" font-size="14" lengthAdjust="spacing" textLength="168" x="203.7923" y="1433.6051">Save Results to Account</text></g><!--MD5=[fee662a292a0353a69bd162820bae93b]
entity User--><g id="elem_User"><ellipse cx="672" cy="14" fill="#F1F1F1" rx="8" ry="8" style="stroke:#181818;stroke-width:0.5;"/><path d="M672,22 L672,49 M659,30 L685,30 M672,49 L659,64 M672,49 L685,64 " fill="none" style="stroke:#181818;stroke-width:0.5;"/><text fill="#000000" font-family="sans-serif" font-size="14" lengthAdjust="spacing" textLength="63" x="640.5" y="78.4951">App User</text></g><!--MD5=[90333d0231993503ce9f10f8abbe7195]
entity Expert1--><g id="elem_Expert1"><ellipse cx="639" cy="788.5" fill="#F1F1F1" rx="8" ry="8" style="stroke:#181818;stroke-width:0.5;"/><path d="M639,796.5 L639,823.5 M626,804.5 L652,804.5 M639,823.5 L626,838.5 M639,823.5 L652,838.5 " fill="none" style="stroke:#181818;stroke-width:0.5;"/><text fill="#000000" font-family="sans-serif" font-size="14" lengthAdjust="spacing" textLength="99" x="589.5" y="852.9951">Third-Party API</text></g><!--MD5=[39222abbbfd087a4fdab60e627dc976f]
entity Auth--><g id="elem_Auth"><ellipse cx="635" cy="151.5" fill="#F1F1F1" rx="8" ry="8" style="stroke:#181818;stroke-width:0.5;"/><path d="M635,159.5 L635,186.5 M622,167.5 L648,167.5 M635,186.5 L622,201.5 M635,186.5 L648,201.5 " fill="none" style="stroke:#181818;stroke-width:0.5;"/><text fill="#000000" font-family="sans-serif" font-size="14" lengthAdjust="spacing" textLength="93" x="588.5" y="215.9951">Authenticator</text></g><!--MD5=[68475033e072f368f599121b29f8f166]
link User to Login to App--><g id="link_User_Login to App"><path d="M640.37,67.18 C602.95,94 541.48,138.07 507.5,162.43 " fill="none" id="User-to-Login to App" style="stroke:#181818;stroke-width:1.0;"/><polygon fill="#181818" points="503.09,165.59,512.7333,163.5881,507.1509,162.673,508.0661,157.0907,503.09,165.59" style="stroke:#181818;stroke-width:1.0;"/></g><!--MD5=[408aff4e92e5c9be4cb0654e56860efd]
link Login to App to Authenticate User--><g id="link_Login to App_Authenticate User"><path d="M481.99,197.17 C480.42,220.48 477.42,265.32 475.58,292.9 " fill="none" id="Login to App-to-Authenticate User" style="stroke:#181818;stroke-width:1.0;stroke-dasharray:7.0,7.0;"/><polygon fill="#181818" points="475.23,298.18,479.8363,289.4747,475.5721,293.1917,471.8551,288.9274,475.23,298.18" style="stroke:#181818;stroke-width:1.0;"/><text fill="#000000" font-family="sans-serif" font-size="13" lengthAdjust="spacing" textLength="68" x="479" y="262.0669">«includes»</text></g><!--MD5=[63c649af7a6d206344435a83c503ad41]
link Authenticate User to Deny User--><g id="link_Authenticate User_Deny User"><path d="M448.96,335.71 C435.43,345.23 418.55,357.44 404,369 C382.71,385.92 359.37,406.58 343.62,420.86 " fill="none" id="Authenticate User-to-Deny User" style="stroke:#181818;stroke-width:1.0;stroke-dasharray:7.0,7.0;"/><polygon fill="#181818" points="339.79,424.35,349.1366,421.2449,343.4858,420.9824,343.7484,415.3316,339.79,424.35" style="stroke:#181818;stroke-width:1.0;"/><text fill="#000000" font-family="sans-serif" font-size="13" lengthAdjust="spacing" textLength="67" x="405" y="382.0669">«extends»</text></g><!--MD5=[0158cb0d18ec02e6a4129ad3f0b938b4]
link Authenticate User to Accept User--><g id="link_Authenticate User_Accept User"><path d="M476.43,336.65 C479.34,358.41 484.21,394.79 487.26,417.53 " fill="none" id="Authenticate User-to-Accept User" style="stroke:#181818;stroke-width:1.0;stroke-dasharray:7.0,7.0;"/><polygon fill="#181818" points="487.95,422.72,490.7058,413.2646,487.2789,417.7652,482.7782,414.3383,487.95,422.72" style="stroke:#181818;stroke-width:1.0;"/><text fill="#000000" font-family="sans-serif" font-size="13" lengthAdjust="spacing" textLength="67" x="483" y="382.0669">«extends»</text></g><!--MD5=[24531e39c1d851a8e9db77a569472910]
link Auth to Authenticate User--><g id="link_Auth_Authenticate User"><path d="M603.88,219.22 C590.05,234.62 573.07,252.08 556,266 C541.79,277.59 524.71,288.51 509.82,297.22 " fill="none" id="Auth-to-Authenticate User" style="stroke:#181818;stroke-width:1.0;stroke-dasharray:7.0,7.0;"/><polygon fill="#181818" points="505.28,299.85,515.0741,298.8126,509.6097,297.3493,511.073,291.885,505.28,299.85" style="stroke:#181818;stroke-width:1.0;"/></g><!--MD5=[e57142d967caf0b3901c490be10b748c]
link User to Create Account--><g id="link_User_Create Account"><path d="M640.09,51.13 C588.28,62.39 483.07,87.28 398,120.5 C368.15,132.15 335.85,149.11 312.92,161.95 " fill="none" id="User-to-Create Account" style="stroke:#181818;stroke-width:1.0;"/><polygon fill="#181818" points="308.47,164.46,318.2765,163.5477,312.8313,162.0148,314.3642,156.5696,308.47,164.46" style="stroke:#181818;stroke-width:1.0;"/></g><!--MD5=[e512e11d086aa45bc9b9ff559ce7fd9d]
link Create Account to Enter User Information--><g id="link_Create Account_Enter User Information"><path d="M271.09,198.49 C255.67,221.8 227.38,264.54 209.42,291.69 " fill="none" id="Create Account-to-Enter User Information" style="stroke:#181818;stroke-width:1.0;stroke-dasharray:7.0,7.0;"/><polygon fill="#181818" points="206.63,295.91,214.9379,290.6205,209.3936,291.7432,208.271,286.1988,206.63,295.91" style="stroke:#181818;stroke-width:1.0;"/><text fill="#000000" font-family="sans-serif" font-size="13" lengthAdjust="spacing" textLength="68" x="238" y="262.0669">«includes»</text></g><!--MD5=[d19b63e19251cb6fb27c3e394225b3bf]
link Enter User Information to Display Account Created--><g id="link_Enter User Information_Display Account Created"><path d="M181.31,339.04 C169.9,359.1 152.47,389.72 140.03,411.58 " fill="none" id="Enter User Information-to-Display Account Created" style="stroke:#181818;stroke-width:1.0;stroke-dasharray:7.0,7.0;"/><polygon fill="#181818" points="137.46,416.11,145.3879,410.2663,139.933,411.7644,138.4349,406.3095,137.46,416.11" style="stroke:#181818;stroke-width:1.0;"/><text fill="#000000" font-family="sans-serif" font-size="13" lengthAdjust="spacing" textLength="68" x="164" y="382.0669">«includes»</text></g><!--MD5=[77855731247b1333b7c5a9d17635c7dc]
link Display Account Created to Login to Account--><g id="link_Display Account Created_Login to Account"><path d="M125,462.09 C125,482.7 125,513.27 125,533.88 " fill="none" id="Display Account Created-to-Login to Account" style="stroke:#181818;stroke-width:1.0;stroke-dasharray:7.0,7.0;"/><polygon fill="#181818" points="125,538.89,129,529.89,125,533.89,121,529.89,125,538.89" style="stroke:#181818;stroke-width:1.0;"/><text fill="#000000" font-family="sans-serif" font-size="13" lengthAdjust="spacing" textLength="67" x="126" y="505.0669">«extends»</text></g><!--MD5=[a662604ce1eaf879ed0978dace4c07f5]
link Accept User to View Home Page--><g id="link_Accept User_View Home Page"><path d="M477.19,455.16 C459.92,475.6 429.12,512.06 409.67,535.09 " fill="none" id="Accept User-to-View Home Page" style="stroke:#181818;stroke-width:1.0;stroke-dasharray:7.0,7.0;"/><polygon fill="#181818" points="406.41,538.95,415.2777,534.6648,409.6404,535.1336,409.1715,529.4962,406.41,538.95" style="stroke:#181818;stroke-width:1.0;"/><text fill="#000000" font-family="sans-serif" font-size="13" lengthAdjust="spacing" textLength="68" x="444" y="505.0669">«includes»</text></g><!--MD5=[84c3b71c1aa8021d0bacdb5ef1a5bda0]
link User to Select Classification Request--><g id="link_User_Select Classification Request"><path d="M699.82,81.51 C716.69,107.62 735,144.2 735,180 C735,180 735,180 735,558 C735,609.89 593,644.06 491.73,661.84 " fill="none" id="User-to-Select Classification Request" style="stroke:#181818;stroke-width:1.0;"/><polygon fill="#181818" points="486.63,662.72,496.1823,665.1188,491.5561,661.8633,494.8115,657.2371,486.63,662.72" style="stroke:#181818;stroke-width:1.0;"/></g><!--MD5=[5d2a30f3cd0993a126b92159764fcf36]
link View Home Page to Select Classification Request--><g id="link_View Home Page_Select Classification Request"><path d="M392,575.23 C392,593.89 392,624.01 392,646.55 " fill="none" id="View Home Page-to-Select Classification Request" style="stroke:#181818;stroke-width:1.0;stroke-dasharray:7.0,7.0;"/><polygon fill="#181818" points="392,651.82,396,642.82,392,646.82,388,642.82,392,651.82" style="stroke:#181818;stroke-width:1.0;"/><text fill="#000000" font-family="sans-serif" font-size="13" lengthAdjust="spacing" textLength="68" x="393" y="618.0669">«includes»</text></g><!--MD5=[bf8af9c180167db8a7740d3471f94502]
link Select Classification Request to Start Image Search--><g id="link_Select Classification Request_Start Image Search"><path d="M405.41,702.94 C419.53,728.68 441.59,768.88 455.4,794.04 " fill="none" id="Select Classification Request-to-Start Image Search" style="stroke:#181818;stroke-width:1.0;stroke-dasharray:7.0,7.0;"/><polygon fill="#181818" points="457.88,798.55,457.0685,788.7346,455.4797,794.1638,450.0506,792.5751,457.88,798.55" style="stroke:#181818;stroke-width:1.0;"/><text fill="#000000" font-family="sans-serif" font-size="13" lengthAdjust="spacing" textLength="68" x="431" y="746.0669">«includes»</text></g><!--MD5=[dea72a176d353b51989eb3f1ada7a467]
link Select Classification Request to Start Freeform Search--><g id="link_Select Classification Request_Start Freeform Search"><path d="M365.09,702.34 C357.07,711.09 349.29,721.66 345,733 C326.24,782.6 332.4,846.07 338.04,880.69 " fill="none" id="Select Classification Request-to-Start Freeform Search" style="stroke:#181818;stroke-width:1.0;stroke-dasharray:7.0,7.0;"/><polygon fill="#181818" points="338.93,885.99,341.387,876.4526,338.1034,881.0588,333.4971,877.7751,338.93,885.99" style="stroke:#181818;stroke-width:1.0;"/><text fill="#000000" font-family="sans-serif" font-size="13" lengthAdjust="spacing" textLength="68" x="346" y="746.0669">«includes»</text></g><!--MD5=[ac1cda886c7d5e500166f6de09cd140c]
link Select Classification Request to Start Survey Search--><g id="link_Select Classification Request_Start Survey Search"><path d="M322.38,698 C301.05,706.34 278.59,717.76 261,733 C212.33,775.17 180.37,846.24 166.27,882.78 " fill="none" id="Select Classification Request-to-Start Survey Search" style="stroke:#181818;stroke-width:1.0;stroke-dasharray:7.0,7.0;"/><polygon fill="#181818" points="164.48,887.48,171.4042,880.476,166.2481,882.8031,163.921,877.647,164.48,887.48" style="stroke:#181818;stroke-width:1.0;"/><text fill="#000000" font-family="sans-serif" font-size="13" lengthAdjust="spacing" textLength="68" x="262" y="746.0669">«includes»</text></g><!--MD5=[c1e073975b62db976cf613e191846d72]
link User to View Saved Results--><g id="link_User_View Saved Results"><path d="M703.76,59.22 C743.38,80.04 806,122.1 806,180 C806,180 806,180 806,1432 C806,1518.58 527.31,1541.36 378.77,1547.36 " fill="none" id="User-to-View Saved Results" style="stroke:#181818;stroke-width:1.0;"/><polygon fill="#181818" points="373.54,1547.57,382.6927,1551.2071,378.536,1547.3702,382.3729,1543.2135,373.54,1547.57" style="stroke:#181818;stroke-width:1.0;"/></g><!--MD5=[9b5628488b321e2f7a4e4865f66aa8d2]
link View Home Page to View Saved Results--><g id="link_View Home Page_View Saved Results"><path d="M328.56,567.73 C233.47,584.13 65,621.02 65,676.5 C65,676.5 65,676.5 65,1432 C65,1498.53 143.66,1527.48 207.54,1540.02 " fill="none" id="View Home Page-to-View Saved Results" style="stroke:#181818;stroke-width:1.0;stroke-dasharray:7.0,7.0;"/><polygon fill="#181818" points="212.5,1540.97,204.4149,1535.3458,207.5896,1540.0279,202.9075,1543.2025,212.5,1540.97" style="stroke:#181818;stroke-width:1.0;"/><text fill="#000000" font-family="sans-serif" font-size="13" lengthAdjust="spacing" textLength="68" x="66" y="1086.0669">«includes»</text></g><!--MD5=[f91d5c05df9dcde0106419da6875762d]
link Start Image Search to Image Processing--><g id="link_Start Image Search_Image Processing"><path d="M468.83,837.63 C470.11,866.34 472.56,921.38 473.96,952.7 " fill="none" id="Start Image Search-to-Image Processing" style="stroke:#181818;stroke-width:1.0;stroke-dasharray:7.0,7.0;"/><polygon fill="#181818" points="474.19,957.88,477.7748,948.7067,473.9617,952.8852,469.7832,949.0721,474.19,957.88" style="stroke:#181818;stroke-width:1.0;"/><text fill="#000000" font-family="sans-serif" font-size="13" lengthAdjust="spacing" textLength="68" x="473" y="911.5669">«includes»</text></g><!--MD5=[dbe95b33c075a223a9e0399c50794262]
link Image Processing to Decision Forum Processing--><g id="link_Image Processing_Decision Forum Processing"><path d="M444.54,994.7 C414.23,1011.31 367.38,1036.99 332.83,1055.93 " fill="none" id="Image Processing-to-Decision Forum Processing" style="stroke:#181818;stroke-width:1.0;stroke-dasharray:7.0,7.0;"/><polygon fill="#181818" points="328.25,1058.44,338.0633,1057.6039,332.6302,1056.0288,334.2053,1050.5956,328.25,1058.44" style="stroke:#181818;stroke-width:1.0;"/></g><!--MD5=[5bbd0b04106b04cd505d618b009db814]
link Start Freeform Search to Decision Forum Processing--><g id="link_Start Freeform Search_Decision Forum Processing"><path d="M324.66,928 C317.73,936.64 310.45,947.22 306,958 C293.52,988.24 289.52,1025.81 288.32,1051.32 " fill="none" id="Start Freeform Search-to-Decision Forum Processing" style="stroke:#181818;stroke-width:1.0;stroke-dasharray:7.0,7.0;"/><polygon fill="#181818" points="288.11,1056.57,292.4665,1047.7371,288.3098,1051.574,284.4729,1047.4173,288.11,1056.57" style="stroke:#181818;stroke-width:1.0;"/><text fill="#000000" font-family="sans-serif" font-size="13" lengthAdjust="spacing" textLength="68" x="307" y="981.5669">«includes»</text></g><!--MD5=[c9af19d686b1feb804a72d3e6c381938]
link Start Survey Search to Decision Forum Processing--><g id="link_Start Survey Search_Decision Forum Processing"><path d="M169.64,926.6 C181.15,944.69 199.53,972.77 217,996 C231.86,1015.77 249.78,1037.08 263.9,1053.36 " fill="none" id="Start Survey Search-to-Decision Forum Processing" style="stroke:#181818;stroke-width:1.0;stroke-dasharray:7.0,7.0;"/><polygon fill="#181818" points="267.41,1057.38,264.514,1047.9665,264.1256,1053.61,258.4821,1053.2216,267.41,1057.38" style="stroke:#181818;stroke-width:1.0;"/><text fill="#000000" font-family="sans-serif" font-size="13" lengthAdjust="spacing" textLength="68" x="218" y="981.5669">«includes»</text></g><!--MD5=[e2eb8b71eb4156789a6fefb1b6fe97ee]
link Expert1 to Image Processing--><g id="link_Expert1_Image Processing"><path d="M613.35,856.1 C596.82,878.46 573.99,906.63 550,928 C537.97,938.72 523.3,948.66 510.14,956.69 " fill="none" id="Expert1-to-Image Processing" style="stroke:#181818;stroke-width:1.0;"/><polygon fill="#181818" points="505.74,959.34,515.5154,958.1395,510.0275,956.7675,511.3995,951.2796,505.74,959.34" style="stroke:#181818;stroke-width:1.0;"/></g><!--MD5=[4ddd4db2a250a73056a34bd38fabd9ab]
link Decision Forum Processing to Display Results--><g id="link_Decision Forum Processing_Display Results"><path d="M288,1106.18 C288,1127.02 288,1157.13 288,1177.46 " fill="none" id="Decision Forum Processing-to-Display Results" style="stroke:#181818;stroke-width:1.0;stroke-dasharray:7.0,7.0;"/><polygon fill="#181818" points="288,1182.67,292,1173.67,288,1177.67,284,1173.67,288,1182.67" style="stroke:#181818;stroke-width:1.0;"/><text fill="#000000" font-family="sans-serif" font-size="13" lengthAdjust="spacing" textLength="67" x="289" y="1149.0669">«extends»</text></g><!--MD5=[31a06668504fcfcee13f81f14c1c52a2]
link Display Results to Generate Report--><g id="link_Display Results_Generate Report"><path d="M288,1218.28 C288,1237.32 288,1268.45 288,1289.56 " fill="none" id="Display Results-to-Generate Report" style="stroke:#181818;stroke-width:1.0;stroke-dasharray:7.0,7.0;"/><polygon fill="#181818" points="288,1294.69,292,1285.69,288,1289.69,284,1285.69,288,1294.69" style="stroke:#181818;stroke-width:1.0;"/><text fill="#000000" font-family="sans-serif" font-size="13" lengthAdjust="spacing" textLength="67" x="289" y="1261.0669">«extends»</text></g><!--MD5=[9d2a38c68fa831a29c0ac28226549730]
link Generate Report to Save Results to Account--><g id="link_Generate Report_Save Results to Account"><path d="M288,1331.12 C288,1349.9 288,1380.33 288,1402.48 " fill="none" id="Generate Report-to-Save Results to Account" style="stroke:#181818;stroke-width:1.0;stroke-dasharray:7.0,7.0;"/><polygon fill="#181818" points="288,1407.64,292,1398.64,288,1402.64,284,1398.64,288,1407.64" style="stroke:#181818;stroke-width:1.0;"/><text fill="#000000" font-family="sans-serif" font-size="13" lengthAdjust="spacing" textLength="67" x="289" y="1374.0669">«extends»</text></g><!--MD5=[6c462fc771ae7c7e18453323edb75929]
link Save Results to Account to View Saved Results--><g id="link_Save Results to Account_View Saved Results"><path d="M288,1454.1 C288,1474.57 288,1504.92 288,1525.87 " fill="none" id="Save Results to Account-to-View Saved Results" style="stroke:#181818;stroke-width:1.0;stroke-dasharray:7.0,7.0;"/><polygon fill="#181818" points="288,1530.98,292,1521.98,288,1525.98,284,1521.98,288,1530.98" style="stroke:#181818;stroke-width:1.0;"/><text fill="#000000" font-family="sans-serif" font-size="13" lengthAdjust="spacing" textLength="68" x="289" y="1497.0669">«includes»</text></g><!--MD5=[4ce094c36044d724b35ee3b5ae7f413e]
@startuml
actor "App User" as User
actor "Third-Party API" as Expert1
actor "Authenticator" as Auth

rectangle "Species Classifier System" {
    User - -> (Login to App)
    (Login to App) ..> (Authenticate User) : <<includes>>
    (Authenticate User) ..> (Deny User) : <<extends>>
    (Authenticate User) ..> (Accept User) : <<extends>>
    Auth ..> (Authenticate User)

    User - -> (Create Account)
    (Create Account) ..> (Enter User Information) : <<includes>>
    (Enter User Information) ..> (Display Account Created) : <<includes>>
    (Display Account Created) ..> (Login to Account): <<extends>>

    (Accept User) ..> (View Home Page) : <<includes>>  

    User - -> (Select Classification Request)
    (View Home Page) ..> (Select Classification Request): <<includes>>  
    (Select Classification Request) ..> (Start Image Search) : <<includes>>
    (Select Classification Request) ..> (Start Freeform Search) : <<includes>>
    (Select Classification Request) ..> (Start Survey Search) : <<includes>>

     User - -> (View Saved Results)
    (View Home Page) ..> (View Saved Results): <<includes>> 

    (Start Image Search) ..> (Image Processing): <<includes>>
    (Image Processing) ..> (Decision Forum Processing) <<includes>>
    (Start Freeform Search) ..>  (Decision Forum Processing): <<includes>>
    (Start Survey Search) ..>  (Decision Forum Processing): <<includes>>

    Expert1 - -> (Image Processing)
    (Decision Forum Processing) ..>  (Display Results): <<extends>>
    (Display Results) ..> (Generate Report) : <<extends>>

    (Generate Report) ..> (Save Results to Account) : <<extends>>
    (Save Results to Account) ..> (View Saved Results) : <<includes>>
}
@enduml

PlantUML version 1.2022.7(Mon Aug 22 17:01:30 UTC 2022)
(GPL source distribution)
Java Runtime: OpenJDK Runtime Environment
JVM: OpenJDK 64-Bit Server VM
Default Encoding: UTF-8
Language: en
Country: null
--></g></svg>