<svg xmlns="http://www.w3.org/2000/svg" xmlns:xlink="http://www.w3.org/1999/xlink" contentStyleType="text/css" data-diagram-type="SEQUENCE" height="356px" preserveAspectRatio="none" style="width:653px;height:356px;background:#FFFFFF;" version="1.1" viewBox="0 0 653 356" width="653px" zoomAndPan="magnify"><defs/><g><g><title>CreateAccount</title><rect fill="#FFFFFF" height="145.6641" style="stroke:#181818;stroke-width:1;" width="10" x="166.6328" y="112.4297"/></g><g><title>AccountManager</title><rect fill="#FFFFFF" height="116.5313" style="stroke:#181818;stroke-width:1;" width="10" x="301.5015" y="141.5625"/></g><g><title>AccountDatabase</title><rect fill="#FFFFFF" height="29.1328" style="stroke:#181818;stroke-width:1;" width="10" x="455.6709" y="170.6953"/></g><g><title>LoginSuccess</title><rect fill="#FFFFFF" height="29.1328" style="stroke:#181818;stroke-width:1;" width="10" x="588.6426" y="228.9609"/></g><g><title>User</title><rect fill="#000000" fill-opacity="0.00000" height="194.7969" width="8" x="19.9551" y="81.2969"/><line style="stroke:#181818;stroke-width:0.5;stroke-dasharray:5.0,5.0;" x1="23" x2="23" y1="81.2969" y2="276.0938"/></g><g><title>CreateAccount</title><rect fill="#000000" fill-opacity="0.00000" height="194.7969" width="8" x="167.6328" y="81.2969"/><line style="stroke:#181818;stroke-width:0.5;stroke-dasharray:5.0,5.0;" x1="170.8335" x2="170.8335" y1="81.2969" y2="276.0938"/></g><g><title>AccountManager</title><rect fill="#000000" fill-opacity="0.00000" height="194.7969" width="8" x="302.5015" y="81.2969"/><line style="stroke:#181818;stroke-width:0.5;stroke-dasharray:5.0,5.0;" x1="306.4321" x2="306.4321" y1="81.2969" y2="276.0938"/></g><g><title>AccountDatabase</title><rect fill="#000000" fill-opacity="0.00000" height="194.7969" width="8" x="456.6709" y="81.2969"/><line style="stroke:#181818;stroke-width:0.5;stroke-dasharray:5.0,5.0;" x1="459.8843" x2="459.8843" y1="81.2969" y2="276.0938"/></g><g><title>LoginSuccess</title><rect fill="#000000" fill-opacity="0.00000" height="194.7969" width="8" x="589.6426" y="81.2969"/><line style="stroke:#181818;stroke-width:0.5;stroke-dasharray:5.0,5.0;" x1="593.4575" x2="593.4575" y1="81.2969" y2="276.0938"/></g><g class="participant participant-head" data-participant="User"><text fill="#000000" font-family="sans-serif" font-size="14" lengthAdjust="spacing" textLength="31.9102" x="5" y="77.9951">User</text><ellipse cx="23.9551" cy="13.5" fill="#E2E2F0" rx="8" ry="8" style="stroke:#181818;stroke-width:0.5;"/><path d="M23.9551,21.5 L23.9551,48.5 M10.9551,29.5 L36.9551,29.5 M23.9551,48.5 L10.9551,63.5 M23.9551,48.5 L36.9551,63.5" fill="none" style="stroke:#181818;stroke-width:0.5;"/></g><g class="participant participant-tail" data-participant="User"><text fill="#000000" font-family="sans-serif" font-size="14" lengthAdjust="spacing" textLength="31.9102" x="5" y="288.0889">User</text><ellipse cx="23.9551" cy="299.8906" fill="#E2E2F0" rx="8" ry="8" style="stroke:#181818;stroke-width:0.5;"/><path d="M23.9551,307.8906 L23.9551,334.8906 M10.9551,315.8906 L36.9551,315.8906 M23.9551,334.8906 L10.9551,349.8906 M23.9551,334.8906 L36.9551,349.8906" fill="none" style="stroke:#181818;stroke-width:0.5;"/></g><g class="participant participant-head" data-participant="CreateAccount"><rect fill="#E2E2F0" height="30.2969" rx="2.5" ry="2.5" style="stroke:#181818;stroke-width:0.5;" width="117.5986" x="112.8335" y="50"/><text fill="#000000" font-family="sans-serif" font-size="14" lengthAdjust="spacing" textLength="103.5986" x="119.8335" y="69.9951">CreateAccount</text></g><g class="participant participant-tail" data-participant="CreateAccount"><rect fill="#E2E2F0" height="30.2969" rx="2.5" ry="2.5" style="stroke:#181818;stroke-width:0.5;" width="117.5986" x="112.8335" y="275.0938"/><text fill="#000000" font-family="sans-serif" font-size="14" lengthAdjust="spacing" textLength="103.5986" x="119.8335" y="295.0889">CreateAccount</text></g><g class="participant participant-head" data-participant="AccountManager"><rect fill="#E2E2F0" height="30.2969" rx="2.5" ry="2.5" style="stroke:#181818;stroke-width:0.5;" width="132.1387" x="240.4321" y="50"/><text fill="#000000" font-family="sans-serif" font-size="14" lengthAdjust="spacing" textLength="118.1387" x="247.4321" y="69.9951">AccountManager</text></g><g class="participant participant-tail" data-participant="AccountManager"><rect fill="#E2E2F0" height="30.2969" rx="2.5" ry="2.5" style="stroke:#181818;stroke-width:0.5;" width="132.1387" x="240.4321" y="275.0938"/><text fill="#000000" font-family="sans-serif" font-size="14" lengthAdjust="spacing" textLength="118.1387" x="247.4321" y="295.0889">AccountManager</text></g><g class="participant participant-head" data-participant="AccountDatabase"><rect fill="#E2E2F0" height="30.2969" rx="2.5" ry="2.5" style="stroke:#181818;stroke-width:0.5;" width="137.5732" x="391.8843" y="50"/><text fill="#000000" font-family="sans-serif" font-size="14" lengthAdjust="spacing" textLength="123.5732" x="398.8843" y="69.9951">AccountDatabase</text></g><g class="participant participant-tail" data-participant="AccountDatabase"><rect fill="#E2E2F0" height="30.2969" rx="2.5" ry="2.5" style="stroke:#181818;stroke-width:0.5;" width="137.5732" x="391.8843" y="275.0938"/><text fill="#000000" font-family="sans-serif" font-size="14" lengthAdjust="spacing" textLength="123.5732" x="398.8843" y="295.0889">AccountDatabase</text></g><g class="participant participant-head" data-participant="LoginSuccess"><rect fill="#E2E2F0" height="30.2969" rx="2.5" ry="2.5" style="stroke:#181818;stroke-width:0.5;" width="108.3701" x="539.4575" y="50"/><text fill="#000000" font-family="sans-serif" font-size="14" lengthAdjust="spacing" textLength="94.3701" x="546.4575" y="69.9951">LoginSuccess</text></g><g class="participant participant-tail" data-participant="LoginSuccess"><rect fill="#E2E2F0" height="30.2969" rx="2.5" ry="2.5" style="stroke:#181818;stroke-width:0.5;" width="108.3701" x="539.4575" y="275.0938"/><text fill="#000000" font-family="sans-serif" font-size="14" lengthAdjust="spacing" textLength="94.3701" x="546.4575" y="295.0889">LoginSuccess</text></g><g><title>CreateAccount</title><rect fill="#FFFFFF" height="145.6641" style="stroke:#181818;stroke-width:1;" width="10" x="166.6328" y="112.4297"/></g><g><title>AccountManager</title><rect fill="#FFFFFF" height="116.5313" style="stroke:#181818;stroke-width:1;" width="10" x="301.5015" y="141.5625"/></g><g><title>AccountDatabase</title><rect fill="#FFFFFF" height="29.1328" style="stroke:#181818;stroke-width:1;" width="10" x="455.6709" y="170.6953"/></g><g><title>LoginSuccess</title><rect fill="#FFFFFF" height="29.1328" style="stroke:#181818;stroke-width:1;" width="10" x="588.6426" y="228.9609"/></g><g class="message" data-participant-1="User" data-participant-2="CreateAccount"><polygon fill="#181818" points="154.6328,108.4297,164.6328,112.4297,154.6328,116.4297,158.6328,112.4297" style="stroke:#181818;stroke-width:1;"/><line style="stroke:#181818;stroke-width:1;" x1="23.9551" x2="160.6328" y1="112.4297" y2="112.4297"/><text fill="#000000" font-family="sans-serif" font-size="13" lengthAdjust="spacing" textLength="123.6777" x="30.9551" y="107.3638">Enter personal info</text></g><g class="message" data-participant-1="CreateAccount" data-participant-2="AccountManager"><polygon fill="#181818" points="289.5015,137.5625,299.5015,141.5625,289.5015,145.5625,293.5015,141.5625" style="stroke:#181818;stroke-width:1;"/><line style="stroke:#181818;stroke-width:1;" x1="176.6328" x2="295.5015" y1="141.5625" y2="141.5625"/><text fill="#000000" font-family="sans-serif" font-size="13" lengthAdjust="spacing" textLength="92.2632" x="183.6328" y="136.4966">send user info</text></g><g class="message" data-participant-1="AccountManager" data-participant-2="AccountDatabase"><polygon fill="#181818" points="443.6709,166.6953,453.6709,170.6953,443.6709,174.6953,447.6709,170.6953" style="stroke:#181818;stroke-width:1;"/><line style="stroke:#181818;stroke-width:1;" x1="311.5015" x2="449.6709" y1="170.6953" y2="170.6953"/><text fill="#000000" font-family="sans-serif" font-size="13" lengthAdjust="spacing" textLength="125.1694" x="318.5015" y="165.6294">store new user info</text></g><g class="message" data-participant-1="AccountDatabase" data-participant-2="AccountManager"><polygon fill="#181818" points="322.5015,195.8281,312.5015,199.8281,322.5015,203.8281,318.5015,199.8281" style="stroke:#181818;stroke-width:1;"/><line style="stroke:#181818;stroke-width:1;stroke-dasharray:2.0,2.0;" x1="316.5015" x2="459.6709" y1="199.8281" y2="199.8281"/><text fill="#000000" font-family="sans-serif" font-size="13" lengthAdjust="spacing" textLength="103.0542" x="328.5015" y="194.7622">confirm storage</text></g><g class="message" data-participant-1="AccountManager" data-participant-2="LoginSuccess"><polygon fill="#181818" points="576.6426,224.9609,586.6426,228.9609,576.6426,232.9609,580.6426,228.9609" style="stroke:#181818;stroke-width:1;"/><line style="stroke:#181818;stroke-width:1;" x1="311.5015" x2="582.6426" y1="228.9609" y2="228.9609"/><text fill="#000000" font-family="sans-serif" font-size="13" lengthAdjust="spacing" textLength="151.1377" x="318.5015" y="223.895">show success message</text></g><g class="message" data-participant-1="LoginSuccess" data-participant-2="User"><polygon fill="#181818" points="34.9551,254.0938,24.9551,258.0938,34.9551,262.0938,30.9551,258.0938" style="stroke:#181818;stroke-width:1;"/><line style="stroke:#181818;stroke-width:1;stroke-dasharray:2.0,2.0;" x1="28.9551" x2="592.6426" y1="258.0938" y2="258.0938"/><text fill="#000000" font-family="sans-serif" font-size="13" lengthAdjust="spacing" textLength="152.3564" x="40.9551" y="253.0278">confirmation + redirect</text></g><!--SRC=[VP513i8W44NtSuhPcrwW2nEZxdHbFC0udLOI7GnGUtsXsWPCTKFumy_Z1OY3TNZsuW3IYjKQjqueo8RPzXfgt6k8yuSuRvLkQBIrG1pCCvRABa0H4-kpFP9I9wv6BzfWdougEMKFeCmPQKU1BkGbegAveChmXpUruIjZjU36LblZxYCuJg2HdxW5luFjZ9vwPl4-obtjWFwTy1wN19nnUHVoC7gbVvXjA1Yhk48dZN728RSgC0kwqsjc9yK7lG00]--></g></svg>