<svg xmlns="http://www.w3.org/2000/svg" xmlns:xlink="http://www.w3.org/1999/xlink" contentStyleType="text/css" data-diagram-type="SEQUENCE" height="503px" preserveAspectRatio="none" style="width:994px;height:503px;background:#FFFFFF;" version="1.1" viewBox="0 0 994 503" width="994px" zoomAndPan="magnify"><defs/><g><rect fill="none" height="148.4688" style="stroke:#000000;stroke-width:1.5;" width="977.52" x="10" y="256.9609"/><g><title>User</title><rect fill="#000000" fill-opacity="0.00000" height="341.1328" width="8" x="34.9551" y="81.2969"/><line style="stroke:#181818;stroke-width:0.5;stroke-dasharray:5.0,5.0;" x1="38" x2="38" y1="81.2969" y2="422.4297"/></g><g><title>Login</title><rect fill="#000000" fill-opacity="0.00000" height="341.1328" width="8" x="177.7451" y="81.2969"/><line style="stroke:#181818;stroke-width:0.5;stroke-dasharray:5.0,5.0;" x1="181.7378" x2="181.7378" y1="81.2969" y2="422.4297"/></g><g><title>AccountManager</title><rect fill="#000000" fill-opacity="0.00000" height="341.1328" width="8" x="473.4883" y="81.2969"/><line style="stroke:#181818;stroke-width:0.5;stroke-dasharray:5.0,5.0;" x1="477.4189" x2="477.4189" y1="81.2969" y2="422.4297"/></g><g><title>AccountDatabase</title><rect fill="#000000" fill-opacity="0.00000" height="341.1328" width="8" x="689.6699" y="81.2969"/><line style="stroke:#181818;stroke-width:0.5;stroke-dasharray:5.0,5.0;" x1="692.8833" x2="692.8833" y1="81.2969" y2="422.4297"/></g><g><title>LoginSuccess</title><rect fill="#000000" fill-opacity="0.00000" height="341.1328" width="8" x="822.6416" y="81.2969"/><line style="stroke:#181818;stroke-width:0.5;stroke-dasharray:5.0,5.0;" x1="826.4565" x2="826.4565" y1="81.2969" y2="422.4297"/></g><g><title>LoginError</title><rect fill="#000000" fill-opacity="0.00000" height="341.1328" width="8" x="930.1733" y="81.2969"/><line style="stroke:#181818;stroke-width:0.5;stroke-dasharray:5.0,5.0;" x1="933.8267" x2="933.8267" y1="81.2969" y2="422.4297"/></g><g class="participant participant-head" data-participant="User"><text fill="#000000" font-family="sans-serif" font-size="14" lengthAdjust="spacing" textLength="31.9102" x="20" y="77.9951">User</text><ellipse cx="38.9551" cy="13.5" fill="#E2E2F0" rx="8" ry="8" style="stroke:#181818;stroke-width:0.5;"/><path d="M38.9551,21.5 L38.9551,48.5 M25.9551,29.5 L51.9551,29.5 M38.9551,48.5 L25.9551,63.5 M38.9551,48.5 L51.9551,63.5" fill="none" style="stroke:#181818;stroke-width:0.5;"/></g><g class="participant participant-tail" data-participant="User"><text fill="#000000" font-family="sans-serif" font-size="14" lengthAdjust="spacing" textLength="31.9102" x="20" y="434.4248">User</text><ellipse cx="38.9551" cy="446.2266" fill="#E2E2F0" rx="8" ry="8" style="stroke:#181818;stroke-width:0.5;"/><path d="M38.9551,454.2266 L38.9551,481.2266 M25.9551,462.2266 L51.9551,462.2266 M38.9551,481.2266 L25.9551,496.2266 M38.9551,481.2266 L51.9551,496.2266" fill="none" style="stroke:#181818;stroke-width:0.5;"/></g><g class="participant participant-head" data-participant="Login"><rect fill="#E2E2F0" height="30.2969" rx="2.5" ry="2.5" style="stroke:#181818;stroke-width:0.5;" width="52.0146" x="155.7378" y="50"/><text fill="#000000" font-family="sans-serif" font-size="14" lengthAdjust="spacing" textLength="38.0146" x="162.7378" y="69.9951">Login</text></g><g class="participant participant-tail" data-participant="Login"><rect fill="#E2E2F0" height="30.2969" rx="2.5" ry="2.5" style="stroke:#181818;stroke-width:0.5;" width="52.0146" x="155.7378" y="421.4297"/><text fill="#000000" font-family="sans-serif" font-size="14" lengthAdjust="spacing" textLength="38.0146" x="162.7378" y="441.4248">Login</text></g><g class="participant participant-head" data-participant="AccountManager"><rect fill="#E2E2F0" height="30.2969" rx="2.5" ry="2.5" style="stroke:#181818;stroke-width:0.5;" width="132.1387" x="411.4189" y="50"/><text fill="#000000" font-family="sans-serif" font-size="14" lengthAdjust="spacing" textLength="118.1387" x="418.4189" y="69.9951">AccountManager</text></g><g class="participant participant-tail" data-participant="AccountManager"><rect fill="#E2E2F0" height="30.2969" rx="2.5" ry="2.5" style="stroke:#181818;stroke-width:0.5;" width="132.1387" x="411.4189" y="421.4297"/><text fill="#000000" font-family="sans-serif" font-size="14" lengthAdjust="spacing" textLength="118.1387" x="418.4189" y="441.4248">AccountManager</text></g><g class="participant participant-head" data-participant="AccountDatabase"><rect fill="#E2E2F0" height="30.2969" rx="2.5" ry="2.5" style="stroke:#181818;stroke-width:0.5;" width="137.5732" x="624.8833" y="50"/><text fill="#000000" font-family="sans-serif" font-size="14" lengthAdjust="spacing" textLength="123.5732" x="631.8833" y="69.9951">AccountDatabase</text></g><g class="participant participant-tail" data-participant="AccountDatabase"><rect fill="#E2E2F0" height="30.2969" rx="2.5" ry="2.5" style="stroke:#181818;stroke-width:0.5;" width="137.5732" x="624.8833" y="421.4297"/><text fill="#000000" font-family="sans-serif" font-size="14" lengthAdjust="spacing" textLength="123.5732" x="631.8833" y="441.4248">AccountDatabase</text></g><g class="participant participant-head" data-participant="LoginSuccess"><rect fill="#E2E2F0" height="30.2969" rx="2.5" ry="2.5" style="stroke:#181818;stroke-width:0.5;" width="108.3701" x="772.4565" y="50"/><text fill="#000000" font-family="sans-serif" font-size="14" lengthAdjust="spacing" textLength="94.3701" x="779.4565" y="69.9951">LoginSuccess</text></g><g class="participant participant-tail" data-participant="LoginSuccess"><rect fill="#E2E2F0" height="30.2969" rx="2.5" ry="2.5" style="stroke:#181818;stroke-width:0.5;" width="108.3701" x="772.4565" y="421.4297"/><text fill="#000000" font-family="sans-serif" font-size="14" lengthAdjust="spacing" textLength="94.3701" x="779.4565" y="441.4248">LoginSuccess</text></g><g class="participant participant-head" data-participant="LoginError"><rect fill="#E2E2F0" height="30.2969" rx="2.5" ry="2.5" style="stroke:#181818;stroke-width:0.5;" width="86.6934" x="890.8267" y="50"/><text fill="#000000" font-family="sans-serif" font-size="14" lengthAdjust="spacing" textLength="72.6934" x="897.8267" y="69.9951">LoginError</text></g><g class="participant participant-tail" data-participant="LoginError"><rect fill="#E2E2F0" height="30.2969" rx="2.5" ry="2.5" style="stroke:#181818;stroke-width:0.5;" width="86.6934" x="890.8267" y="421.4297"/><text fill="#000000" font-family="sans-serif" font-size="14" lengthAdjust="spacing" textLength="72.6934" x="897.8267" y="441.4248">LoginError</text></g><g class="message" data-participant-1="User" data-participant-2="Login"><polygon fill="#181818" points="169.7451,108.4297,179.7451,112.4297,169.7451,116.4297,173.7451,112.4297" style="stroke:#181818;stroke-width:1;"/><line style="stroke:#181818;stroke-width:1;" x1="38.9551" x2="175.7451" y1="112.4297" y2="112.4297"/><text fill="#000000" font-family="sans-serif" font-size="13" lengthAdjust="spacing" textLength="118.79" x="45.9551" y="107.3638">enterCredentials()</text></g><g class="message" data-participant-1="Login" data-participant-2="AccountManager"><polygon fill="#181818" points="465.4883,137.5625,475.4883,141.5625,465.4883,145.5625,469.4883,141.5625" style="stroke:#181818;stroke-width:1;"/><line style="stroke:#181818;stroke-width:1;" x1="181.7451" x2="471.4883" y1="141.5625" y2="141.5625"/><text fill="#000000" font-family="sans-serif" font-size="13" lengthAdjust="spacing" textLength="271.7432" x="188.7451" y="136.4966">validateCredentials(username, password)</text></g><g class="message" data-participant-1="AccountManager" data-participant-2="AccountDatabase"><polygon fill="#181818" points="681.6699,166.6953,691.6699,170.6953,681.6699,174.6953,685.6699,170.6953" style="stroke:#181818;stroke-width:1;"/><line style="stroke:#181818;stroke-width:1;" x1="477.4883" x2="687.6699" y1="170.6953" y2="170.6953"/><text fill="#000000" font-family="sans-serif" font-size="13" lengthAdjust="spacing" textLength="192.1816" x="484.4883" y="165.6294">fetchAccountData(username)</text></g><g class="message" data-participant-1="AccountDatabase" data-participant-2="AccountManager"><polygon fill="#181818" points="488.4883,195.8281,478.4883,199.8281,488.4883,203.8281,484.4883,199.8281" style="stroke:#181818;stroke-width:1;"/><line style="stroke:#181818;stroke-width:1;stroke-dasharray:2.0,2.0;" x1="482.4883" x2="692.6699" y1="199.8281" y2="199.8281"/><text fill="#000000" font-family="sans-serif" font-size="13" lengthAdjust="spacing" textLength="82.8306" x="494.4883" y="194.7622">accountData</text></g><g class="message" data-participant-1="AccountManager" data-participant-2="AccountManager"><line style="stroke:#181818;stroke-width:1;" x1="477.4883" x2="519.4883" y1="228.9609" y2="228.9609"/><line style="stroke:#181818;stroke-width:1;" x1="519.4883" x2="519.4883" y1="228.9609" y2="241.9609"/><line style="stroke:#181818;stroke-width:1;" x1="478.4883" x2="519.4883" y1="241.9609" y2="241.9609"/><polygon fill="#181818" points="488.4883,237.9609,478.4883,241.9609,488.4883,245.9609,484.4883,241.9609" style="stroke:#181818;stroke-width:1;"/><text fill="#000000" font-family="sans-serif" font-size="13" lengthAdjust="spacing" textLength="158.7549" x="484.4883" y="223.895">compare password hash</text></g><path d="M10,256.9609 L74.4429,256.9609 L74.4429,264.0938 L64.4429,274.0938 L10,274.0938 L10,256.9609" fill="#EEEEEE" style="stroke:#000000;stroke-width:1.5;"/><rect fill="none" height="148.4688" style="stroke:#000000;stroke-width:1.5;" width="977.52" x="10" y="256.9609"/><text fill="#000000" font-family="sans-serif" font-size="13" font-weight="bold" lengthAdjust="spacing" textLength="19.4429" x="25" y="270.0278">alt</text><text fill="#000000" font-family="sans-serif" font-size="11" font-weight="bold" lengthAdjust="spacing" textLength="153.0815" x="89.4429" y="269.1714">[Credentials are correct]</text><g class="message" data-participant-1="AccountManager" data-participant-2="LoginSuccess"><polygon fill="#181818" points="814.6416,291.2266,824.6416,295.2266,814.6416,299.2266,818.6416,295.2266" style="stroke:#181818;stroke-width:1;"/><line style="stroke:#181818;stroke-width:1;" x1="477.4883" x2="820.6416" y1="295.2266" y2="295.2266"/><text fill="#000000" font-family="sans-serif" font-size="13" lengthAdjust="spacing" textLength="165.6104" x="484.4883" y="290.1606">displaySuccessMessage()</text></g><g class="message" data-participant-1="LoginSuccess" data-participant-2="User"><polygon fill="#181818" points="49.9551,320.3594,39.9551,324.3594,49.9551,328.3594,45.9551,324.3594" style="stroke:#181818;stroke-width:1;"/><line style="stroke:#181818;stroke-width:1;" x1="43.9551" x2="825.6416" y1="324.3594" y2="324.3594"/><text fill="#000000" font-family="sans-serif" font-size="13" lengthAdjust="spacing" textLength="180.4321" x="55.9551" y="319.2935">show dashboard/homepage</text></g><line style="stroke:#000000;stroke-width:1;stroke-dasharray:2.0,2.0;" x1="10" x2="987.52" y1="333.3594" y2="333.3594"/><text fill="#000000" font-family="sans-serif" font-size="11" font-weight="bold" lengthAdjust="spacing" textLength="164.6831" x="15" y="343.5698">[Credentials are incorrect]</text><g class="message" data-participant-1="AccountManager" data-participant-2="LoginError"><polygon fill="#181818" points="922.1733,364.2969,932.1733,368.2969,922.1733,372.2969,926.1733,368.2969" style="stroke:#181818;stroke-width:1;"/><line style="stroke:#181818;stroke-width:1;" x1="477.4883" x2="928.1733" y1="368.2969" y2="368.2969"/><text fill="#000000" font-family="sans-serif" font-size="13" lengthAdjust="spacing" textLength="145.4819" x="484.4883" y="363.231">displayErrorMessage()</text></g><g class="message" data-participant-1="LoginError" data-participant-2="User"><polygon fill="#181818" points="49.9551,393.4297,39.9551,397.4297,49.9551,401.4297,45.9551,397.4297" style="stroke:#181818;stroke-width:1;"/><line style="stroke:#181818;stroke-width:1;" x1="43.9551" x2="933.1733" y1="397.4297" y2="397.4297"/><text fill="#000000" font-family="sans-serif" font-size="13" lengthAdjust="spacing" textLength="121.4116" x="55.9551" y="392.3638">show error prompt</text></g><!--SRC=[ZP31JiCm38RlUGeVcSJ4lGSa1DpO2V40NcAMI6aSsIaJRu_ReRQK8H4fKU9y_vy_HjzOu4r9d1jNsD_32vzIWGweD997eM2RX5blTkvoPSo3zpoKTi229rDry84v1MoqvWSpBDZJBLHKFRE4dTi85widR7X49VDwf-RZgZmRpV8Ptb_BWWlqztiBxhclA3I7X8WQ7UO6gy_0I7WM8TySsFXjF3NdTV2ULCqs9AqPFxyB1vi6MWz7yG_Kf5FhEz38PmZs-f5Hmbtadgg976NxwZPCAl-8yop2ieIPZbUYNB1D49gALQmzpL49Nm00]--></g></svg>