<svg xmlns="http://www.w3.org/2000/svg" xmlns:xlink="http://www.w3.org/1999/xlink" contentStyleType="text/css" data-diagram-type="SEQUENCE" height="498px" preserveAspectRatio="none" style="width:635px;height:498px;background:#FFFFFF;" version="1.1" viewBox="0 0 635 498" width="635px" zoomAndPan="magnify"><title>Start Image Search</title><defs/><g><text fill="#000000" font-family="sans-serif" font-size="14" font-weight="bold" lengthAdjust="spacing" textLength="152.5234" x="240.7271" y="27.9951">Start Image Search</text><g><title>Forum (Blackboard)</title><rect fill="#FFFFFF" height="257.8672" style="stroke:#181818;stroke-width:1;" width="10" x="228.4131" y="149.7266"/></g><g><title>Image Agent</title><rect fill="#FFFFFF" height="228.7344" style="stroke:#181818;stroke-width:1;" width="10" x="366.686" y="178.8594"/></g><g><title>Image Information Source</title><rect fill="#FFFFFF" height="29.1328" style="stroke:#181818;stroke-width:1;" width="10" x="526.7656" y="207.9922"/></g><rect fill="none" height="148.4688" style="stroke:#000000;stroke-width:1.5;" width="423.5537" x="10" y="252.125"/><g><title>User</title><rect fill="#000000" fill-opacity="0.00000" height="299" width="8" x="34.9551" y="118.5938"/><line style="stroke:#181818;stroke-width:0.5;stroke-dasharray:5.0,5.0;" x1="38" x2="38" y1="118.5938" y2="417.5938"/></g><g><title>Forum (Blackboard)</title><rect fill="#000000" fill-opacity="0.00000" height="299" width="8" x="229.4131" y="118.5938"/><line style="stroke:#181818;stroke-width:0.5;stroke-dasharray:5.0,5.0;" x1="233.0078" x2="233.0078" y1="118.5938" y2="417.5938"/></g><g><title>Image Agent</title><rect fill="#000000" fill-opacity="0.00000" height="299" width="8" x="367.686" y="118.5938"/><line style="stroke:#181818;stroke-width:0.5;stroke-dasharray:5.0,5.0;" x1="370.8184" x2="370.8184" y1="118.5938" y2="417.5938"/></g><g><title>Image Information Source</title><rect fill="#000000" fill-opacity="0.00000" height="299" width="8" x="527.7656" y="118.5938"/><line style="stroke:#181818;stroke-width:0.5;stroke-dasharray:5.0,5.0;" x1="531.5537" x2="531.5537" y1="118.5938" y2="417.5938"/></g><g class="participant participant-head" data-participant="User"><text fill="#000000" font-family="sans-serif" font-size="14" lengthAdjust="spacing" textLength="31.9102" x="20" y="115.292">User</text><ellipse cx="38.9551" cy="50.7969" fill="#E2E2F0" rx="8" ry="8" style="stroke:#181818;stroke-width:0.5;"/><path d="M38.9551,58.7969 L38.9551,85.7969 M25.9551,66.7969 L51.9551,66.7969 M38.9551,85.7969 L25.9551,100.7969 M38.9551,85.7969 L51.9551,100.7969" fill="none" style="stroke:#181818;stroke-width:0.5;"/></g><g class="participant participant-tail" data-participant="User"><text fill="#000000" font-family="sans-serif" font-size="14" lengthAdjust="spacing" textLength="31.9102" x="20" y="429.5889">User</text><ellipse cx="38.9551" cy="441.3906" fill="#E2E2F0" rx="8" ry="8" style="stroke:#181818;stroke-width:0.5;"/><path d="M38.9551,449.3906 L38.9551,476.3906 M25.9551,457.3906 L51.9551,457.3906 M38.9551,476.3906 L25.9551,491.3906 M38.9551,476.3906 L51.9551,491.3906" fill="none" style="stroke:#181818;stroke-width:0.5;"/></g><g class="participant participant-head" data-participant="Forum"><rect fill="#E2E2F0" height="30.2969" rx="2.5" ry="2.5" style="stroke:#181818;stroke-width:0.5;" width="152.8105" x="157.0078" y="87.2969"/><text fill="#000000" font-family="sans-serif" font-size="14" lengthAdjust="spacing" textLength="138.8105" x="164.0078" y="107.292">Forum (Blackboard)</text></g><g class="participant participant-tail" data-participant="Forum"><rect fill="#E2E2F0" height="30.2969" rx="2.5" ry="2.5" style="stroke:#181818;stroke-width:0.5;" width="152.8105" x="157.0078" y="416.5938"/><text fill="#000000" font-family="sans-serif" font-size="14" lengthAdjust="spacing" textLength="138.8105" x="164.0078" y="436.5889">Forum (Blackboard)</text></g><g class="participant participant-head" data-participant="ImageA"><rect fill="#E2E2F0" height="30.2969" rx="2.5" ry="2.5" style="stroke:#181818;stroke-width:0.5;" width="103.7354" x="319.8184" y="87.2969"/><text fill="#000000" font-family="sans-serif" font-size="14" lengthAdjust="spacing" textLength="89.7354" x="326.8184" y="107.292">Image Agent</text></g><g class="participant participant-tail" data-participant="ImageA"><rect fill="#E2E2F0" height="30.2969" rx="2.5" ry="2.5" style="stroke:#181818;stroke-width:0.5;" width="103.7354" x="319.8184" y="416.5938"/><text fill="#000000" font-family="sans-serif" font-size="14" lengthAdjust="spacing" textLength="89.7354" x="326.8184" y="436.5889">Image Agent</text></g><g class="participant participant-head" data-participant="ImgDB"><rect fill="#E2E2F0" height="30.2969" rx="2.5" ry="2.5" style="stroke:#181818;stroke-width:0.5;" width="196.4238" x="433.5537" y="87.2969"/><text fill="#000000" font-family="sans-serif" font-size="14" lengthAdjust="spacing" textLength="182.4238" x="440.5537" y="107.292">Image Information Source</text></g><g class="participant participant-tail" data-participant="ImgDB"><rect fill="#E2E2F0" height="30.2969" rx="2.5" ry="2.5" style="stroke:#181818;stroke-width:0.5;" width="196.4238" x="433.5537" y="416.5938"/><text fill="#000000" font-family="sans-serif" font-size="14" lengthAdjust="spacing" textLength="182.4238" x="440.5537" y="436.5889">Image Information Source</text></g><g><title>Forum (Blackboard)</title><rect fill="#FFFFFF" height="257.8672" style="stroke:#181818;stroke-width:1;" width="10" x="228.4131" y="149.7266"/></g><g><title>Image Agent</title><rect fill="#FFFFFF" height="228.7344" style="stroke:#181818;stroke-width:1;" width="10" x="366.686" y="178.8594"/></g><g><title>Image Information Source</title><rect fill="#FFFFFF" height="29.1328" style="stroke:#181818;stroke-width:1;" width="10" x="526.7656" y="207.9922"/></g><g class="message" data-participant-1="User" data-participant-2="Forum"><polygon fill="#181818" points="216.4131,145.7266,226.4131,149.7266,216.4131,153.7266,220.4131,149.7266" style="stroke:#181818;stroke-width:1;"/><line style="stroke:#181818;stroke-width:1;" x1="38.9551" x2="222.4131" y1="149.7266" y2="149.7266"/><text fill="#000000" font-family="sans-serif" font-size="13" lengthAdjust="spacing" textLength="78.5078" x="45.9551" y="144.6606">Image Input</text></g><g class="message" data-participant-1="Forum" data-participant-2="ImageA"><polygon fill="#181818" points="354.686,174.8594,364.686,178.8594,354.686,182.8594,358.686,178.8594" style="stroke:#181818;stroke-width:1;"/><line style="stroke:#181818;stroke-width:1;" x1="238.4131" x2="360.686" y1="178.8594" y2="178.8594"/><text fill="#000000" font-family="sans-serif" font-size="13" lengthAdjust="spacing" textLength="87.623" x="245.4131" y="173.7935">Process Input</text></g><g class="message" data-participant-1="ImageA" data-participant-2="ImgDB"><polygon fill="#181818" points="514.7656,203.9922,524.7656,207.9922,514.7656,211.9922,518.7656,207.9922" style="stroke:#181818;stroke-width:1;"/><line style="stroke:#181818;stroke-width:1;" x1="376.686" x2="520.7656" y1="207.9922" y2="207.9922"/><text fill="#000000" font-family="sans-serif" font-size="13" lengthAdjust="spacing" textLength="108.9385" x="383.686" y="202.9263">Retrieve Species</text></g><g class="message" data-participant-1="ImgDB" data-participant-2="ImageA"><polygon fill="#181818" points="387.686,233.125,377.686,237.125,387.686,241.125,383.686,237.125" style="stroke:#181818;stroke-width:1;"/><line style="stroke:#181818;stroke-width:1;stroke-dasharray:2.0,2.0;" x1="381.686" x2="530.7656" y1="237.125" y2="237.125"/><text fill="#000000" font-family="sans-serif" font-size="13" lengthAdjust="spacing" textLength="98.1157" x="393.686" y="232.0591">Return Species</text></g><path d="M10,252.125 L74.4429,252.125 L74.4429,259.2578 L64.4429,269.2578 L10,269.2578 L10,252.125" fill="#EEEEEE" style="stroke:#000000;stroke-width:1.5;"/><rect fill="none" height="148.4688" style="stroke:#000000;stroke-width:1.5;" width="423.5537" x="10" y="252.125"/><text fill="#000000" font-family="sans-serif" font-size="13" font-weight="bold" lengthAdjust="spacing" textLength="19.4429" x="25" y="265.1919">alt</text><text fill="#000000" font-family="sans-serif" font-size="11" font-weight="bold" lengthAdjust="spacing" textLength="59.4043" x="89.4429" y="264.3354">[Success]</text><g class="message" data-participant-1="ImageA" data-participant-2="Forum"><polygon fill="#181818" points="249.4131,286.3906,239.4131,290.3906,249.4131,294.3906,245.4131,290.3906" style="stroke:#181818;stroke-width:1;"/><line style="stroke:#181818;stroke-width:1;" x1="243.4131" x2="365.686" y1="290.3906" y2="290.3906"/><text fill="#000000" font-family="sans-serif" font-size="13" lengthAdjust="spacing" textLength="52.3301" x="255.4131" y="285.3247">Success</text></g><g class="message" data-participant-1="Forum" data-participant-2="User"><polygon fill="#181818" points="49.9551,315.5234,39.9551,319.5234,49.9551,323.5234,45.9551,319.5234" style="stroke:#181818;stroke-width:1;"/><line style="stroke:#181818;stroke-width:1;" x1="43.9551" x2="227.4131" y1="319.5234" y2="319.5234"/><text fill="#000000" font-family="sans-serif" font-size="13" lengthAdjust="spacing" textLength="165.458" x="55.9551" y="314.4575">Display success message</text></g><line style="stroke:#000000;stroke-width:1;stroke-dasharray:2.0,2.0;" x1="10" x2="433.5537" y1="328.5234" y2="328.5234"/><text fill="#000000" font-family="sans-serif" font-size="11" font-weight="bold" lengthAdjust="spacing" textLength="53.249" x="15" y="338.7339">[Failure]</text><g class="message" data-participant-1="ImageA" data-participant-2="Forum"><polygon fill="#181818" points="249.4131,359.4609,239.4131,363.4609,249.4131,367.4609,245.4131,363.4609" style="stroke:#181818;stroke-width:1;"/><line style="stroke:#181818;stroke-width:1;" x1="243.4131" x2="365.686" y1="363.4609" y2="363.4609"/><text fill="#000000" font-family="sans-serif" font-size="13" lengthAdjust="spacing" textLength="44.2495" x="255.4131" y="358.395">Failure</text></g><g class="message" data-participant-1="Forum" data-participant-2="User"><polygon fill="#181818" points="49.9551,388.5938,39.9551,392.5938,49.9551,396.5938,45.9551,392.5938" style="stroke:#181818;stroke-width:1;"/><line style="stroke:#181818;stroke-width:1;" x1="43.9551" x2="227.4131" y1="392.5938" y2="392.5938"/><text fill="#000000" font-family="sans-serif" font-size="13" lengthAdjust="spacing" textLength="146.5928" x="55.9551" y="387.5278">Display error message</text></g><!--SRC=[TL7DRiCW3BxxAQoSkaDV88T9hQf9lKsBzW0kyJ8q0f4nbVRs8v1bQTLnC09_VmQrwXYRJaaKpoCDZ1sJcCy6W8m6mVV80bDkMsCdyehDIv0qukxeo7nT0ad_r215BDUto2fu6DXhWPJpuH7cx3-2ZAGsUEn24iCBOJWT0UOCk7-k5Yt-KgQaSqXx9UN57cguZArUBRvAC1pZFNo90dMlXEpLuXkhMBxcTvZOM8vRoXocLDnl738ZYL_nFTynW9nYbymS0p2lFyzbe6rp7M0UkiMJZPEZRumLWcCkcGtiOfwPh4l2ZqMtpNz4MIJ_y2hfUxXDNvveSrDaVW00]--></g></svg>