<svg xmlns="http://www.w3.org/2000/svg" xmlns:xlink="http://www.w3.org/1999/xlink" contentStyleType="text/css" data-diagram-type="SEQUENCE" height="356px" preserveAspectRatio="none" style="width:630px;height:356px;background:#FFFFFF;" version="1.1" viewBox="0 0 630 356" width="630px" zoomAndPan="magnify"><defs/><g><g><title>ViewReports</title><rect fill="#FFFFFF" height="145.6641" style="stroke:#181818;stroke-width:1;" width="10" x="241.3066" y="112.4297"/></g><g><title>ReportGenerator</title><rect fill="#FFFFFF" height="87.3984" style="stroke:#181818;stroke-width:1;" width="10" x="392.4102" y="141.5625"/></g><g><title>ReportDatabase</title><rect fill="#FFFFFF" height="29.1328" style="stroke:#181818;stroke-width:1;" width="10" x="555.2251" y="170.6953"/></g><g><title>User</title><rect fill="#000000" fill-opacity="0.00000" height="194.7969" width="8" x="19.9551" y="81.2969"/><line style="stroke:#181818;stroke-width:0.5;stroke-dasharray:5.0,5.0;" x1="23" x2="23" y1="81.2969" y2="276.0938"/></g><g><title>ViewReports</title><rect fill="#000000" fill-opacity="0.00000" height="194.7969" width="8" x="242.3066" y="81.2969"/><line style="stroke:#181818;stroke-width:0.5;stroke-dasharray:5.0,5.0;" x1="245.3755" x2="245.3755" y1="81.2969" y2="276.0938"/></g><g><title>ReportGenerator</title><rect fill="#000000" fill-opacity="0.00000" height="194.7969" width="8" x="393.4102" y="81.2969"/><line style="stroke:#181818;stroke-width:0.5;stroke-dasharray:5.0,5.0;" x1="397.3442" x2="397.3442" y1="81.2969" y2="276.0938"/></g><g><title>ReportDatabase</title><rect fill="#000000" fill-opacity="0.00000" height="194.7969" width="8" x="556.2251" y="81.2969"/><line style="stroke:#181818;stroke-width:0.5;stroke-dasharray:5.0,5.0;" x1="559.3057" x2="559.3057" y1="81.2969" y2="276.0938"/></g><g class="participant participant-head" data-participant="User"><text fill="#000000" font-family="sans-serif" font-size="14" lengthAdjust="spacing" textLength="31.9102" x="5" y="77.9951">User</text><ellipse cx="23.9551" cy="13.5" fill="#E2E2F0" rx="8" ry="8" style="stroke:#181818;stroke-width:0.5;"/><path d="M23.9551,21.5 L23.9551,48.5 M10.9551,29.5 L36.9551,29.5 M23.9551,48.5 L10.9551,63.5 M23.9551,48.5 L36.9551,63.5" fill="none" style="stroke:#181818;stroke-width:0.5;"/></g><g class="participant participant-tail" data-participant="User"><text fill="#000000" font-family="sans-serif" font-size="14" lengthAdjust="spacing" textLength="31.9102" x="5" y="288.0889">User</text><ellipse cx="23.9551" cy="299.8906" fill="#E2E2F0" rx="8" ry="8" style="stroke:#181818;stroke-width:0.5;"/><path d="M23.9551,307.8906 L23.9551,334.8906 M10.9551,315.8906 L36.9551,315.8906 M23.9551,334.8906 L10.9551,349.8906 M23.9551,334.8906 L36.9551,349.8906" fill="none" style="stroke:#181818;stroke-width:0.5;"/></g><g class="participant participant-head" data-participant="ViewReports"><rect fill="#E2E2F0" height="30.2969" rx="2.5" ry="2.5" style="stroke:#181818;stroke-width:0.5;" width="101.8623" x="195.3755" y="50"/><text fill="#000000" font-family="sans-serif" font-size="14" lengthAdjust="spacing" textLength="87.8623" x="202.3755" y="69.9951">ViewReports</text></g><g class="participant participant-tail" data-participant="ViewReports"><rect fill="#E2E2F0" height="30.2969" rx="2.5" ry="2.5" style="stroke:#181818;stroke-width:0.5;" width="101.8623" x="195.3755" y="275.0938"/><text fill="#000000" font-family="sans-serif" font-size="14" lengthAdjust="spacing" textLength="87.8623" x="202.3755" y="295.0889">ViewReports</text></g><g class="participant participant-head" data-participant="ReportGenerator"><rect fill="#E2E2F0" height="30.2969" rx="2.5" ry="2.5" style="stroke:#181818;stroke-width:0.5;" width="132.1318" x="331.3442" y="50"/><text fill="#000000" font-family="sans-serif" font-size="14" lengthAdjust="spacing" textLength="118.1318" x="338.3442" y="69.9951">ReportGenerator</text></g><g class="participant participant-tail" data-participant="ReportGenerator"><rect fill="#E2E2F0" height="30.2969" rx="2.5" ry="2.5" style="stroke:#181818;stroke-width:0.5;" width="132.1318" x="331.3442" y="275.0938"/><text fill="#000000" font-family="sans-serif" font-size="14" lengthAdjust="spacing" textLength="118.1318" x="338.3442" y="295.0889">ReportGenerator</text></g><g class="participant participant-head" data-participant="ReportDatabase"><rect fill="#E2E2F0" height="30.2969" rx="2.5" ry="2.5" style="stroke:#181818;stroke-width:0.5;" width="127.8389" x="496.3057" y="50"/><text fill="#000000" font-family="sans-serif" font-size="14" lengthAdjust="spacing" textLength="113.8389" x="503.3057" y="69.9951">ReportDatabase</text></g><g class="participant participant-tail" data-participant="ReportDatabase"><rect fill="#E2E2F0" height="30.2969" rx="2.5" ry="2.5" style="stroke:#181818;stroke-width:0.5;" width="127.8389" x="496.3057" y="275.0938"/><text fill="#000000" font-family="sans-serif" font-size="14" lengthAdjust="spacing" textLength="113.8389" x="503.3057" y="295.0889">ReportDatabase</text></g><g><title>ViewReports</title><rect fill="#FFFFFF" height="145.6641" style="stroke:#181818;stroke-width:1;" width="10" x="241.3066" y="112.4297"/></g><g><title>ReportGenerator</title><rect fill="#FFFFFF" height="87.3984" style="stroke:#181818;stroke-width:1;" width="10" x="392.4102" y="141.5625"/></g><g><title>ReportDatabase</title><rect fill="#FFFFFF" height="29.1328" style="stroke:#181818;stroke-width:1;" width="10" x="555.2251" y="170.6953"/></g><g class="message" data-participant-1="User" data-participant-2="ViewReports"><polygon fill="#181818" points="229.3066,108.4297,239.3066,112.4297,229.3066,116.4297,233.3066,112.4297" style="stroke:#181818;stroke-width:1;"/><line style="stroke:#181818;stroke-width:1;" x1="23.9551" x2="235.3066" y1="112.4297" y2="112.4297"/><text fill="#000000" font-family="sans-serif" font-size="13" lengthAdjust="spacing" textLength="198.3516" x="30.9551" y="107.3638">Request to view saved reports</text></g><g class="message" data-participant-1="ViewReports" data-participant-2="ReportGenerator"><polygon fill="#181818" points="380.4102,137.5625,390.4102,141.5625,380.4102,145.5625,384.4102,141.5625" style="stroke:#181818;stroke-width:1;"/><line style="stroke:#181818;stroke-width:1;" x1="251.3066" x2="386.4102" y1="141.5625" y2="141.5625"/><text fill="#000000" font-family="sans-serif" font-size="13" lengthAdjust="spacing" textLength="122.1035" x="258.3066" y="136.4966">getSavedReports()</text></g><g class="message" data-participant-1="ReportGenerator" data-participant-2="ReportDatabase"><polygon fill="#181818" points="543.2251,166.6953,553.2251,170.6953,543.2251,174.6953,547.2251,170.6953" style="stroke:#181818;stroke-width:1;"/><line style="stroke:#181818;stroke-width:1;" x1="402.4102" x2="549.2251" y1="170.6953" y2="170.6953"/><text fill="#000000" font-family="sans-serif" font-size="13" lengthAdjust="spacing" textLength="133.8149" x="409.4102" y="165.6294">fetchSavedReports()</text></g><g class="message" data-participant-1="ReportDatabase" data-participant-2="ReportGenerator"><polygon fill="#181818" points="413.4102,195.8281,403.4102,199.8281,413.4102,203.8281,409.4102,199.8281" style="stroke:#181818;stroke-width:1;"/><line style="stroke:#181818;stroke-width:1;stroke-dasharray:2.0,2.0;" x1="407.4102" x2="559.2251" y1="199.8281" y2="199.8281"/><text fill="#000000" font-family="sans-serif" font-size="13" lengthAdjust="spacing" textLength="107.6118" x="419.4102" y="194.7622">return report list</text></g><g class="message" data-participant-1="ReportGenerator" data-participant-2="ViewReports"><polygon fill="#181818" points="262.3066,224.9609,252.3066,228.9609,262.3066,232.9609,258.3066,228.9609" style="stroke:#181818;stroke-width:1;"/><line style="stroke:#181818;stroke-width:1;stroke-dasharray:2.0,2.0;" x1="256.3066" x2="396.4102" y1="228.9609" y2="228.9609"/><text fill="#000000" font-family="sans-serif" font-size="13" lengthAdjust="spacing" textLength="107.6118" x="268.3066" y="223.895">return report list</text></g><g class="message" data-participant-1="ViewReports" data-participant-2="User"><polygon fill="#181818" points="34.9551,254.0938,24.9551,258.0938,34.9551,262.0938,30.9551,258.0938" style="stroke:#181818;stroke-width:1;"/><line style="stroke:#181818;stroke-width:1;stroke-dasharray:2.0,2.0;" x1="28.9551" x2="245.3066" y1="258.0938" y2="258.0938"/><text fill="#000000" font-family="sans-serif" font-size="13" lengthAdjust="spacing" textLength="139.8706" x="40.9551" y="253.0278">display saved reports</text></g><!--SRC=[ZP713e8m38RlVOeUzS0BxE39n3j6xnMgBY60RO7uzh80OIv6lInhz_Th-uyAQmHFoW8GJinsUFOyvDmsOkemvqV7QcWDzcCUbNekKQPdeC9yJyPn3K0K1DvqFN3DGcCtXpUsOy3CcirsvIHQW2InylPaT25bXrUsuluTk8WNtX9Zzca-OUkadfV4ogj1oJ-8qOIfXV_WeetVt1jPuLiSbbxRYfw9_n4dAdi1]--></g></svg>